Coordinates
version=1
nRows=29
nColumns=24
inDegrees=yes

Units are S.I. units (second, meters, Newtons, ...)
Angles are in degrees.

endheader
time	pelvis_tilt	pelvis_list	pelvis_rotation	pelvis_tx	pelvis_ty	pelvis_tz	hip_flexion_r	hip_adduction_r	hip_rotation_r	knee_angle_r	ankle_angle_r	subtalar_angle_r	mtp_angle_r	hip_flexion_l	hip_adduction_l	hip_rotation_l	knee_angle_l	ankle_angle_l	subtalar_angle_l	mtp_angle_l	lumbar_extension	lumbar_bending	lumbar_rotation
      5.99000000	     -4.43471687	      3.85434305	      2.57070282	      2.67773497	      0.66934529	     -0.24752448	     27.08502039	      1.18379407	      3.94162410	    -64.49549646	      0.78480665	    -25.26941486	      0.00000000	     11.77693211	      7.92630607	      5.14156232	    -20.65292693	     17.86191953	     -9.55072508	      0.00000000	    -13.76088679	    -12.57846534	      3.40378276
      6.00000000	     -4.25967804	      3.13567285	      3.20702284	      2.68957309	      0.67081455	     -0.24920635	     28.92573603	      1.99666731	      3.78851379	    -62.08977558	      1.72742850	    -25.21645482	      0.00000000	      9.91290035	      7.34568981	      6.29217716	    -19.62467327	     18.33123765	     -9.60860333	      0.00000000	    -14.27780721	    -11.51794869	      2.27672751
      6.01000000	     -3.78197672	      2.61245176	      3.92689389	      2.70148592	      0.67219110	     -0.25099371	     30.16978623	      2.44834588	      3.56294043	    -59.11704425	      2.53010427	    -25.34931582	      0.00000000	      7.66394258	      6.89302305	      7.45102408	    -18.45018313	     18.53944427	     -9.69332520	      0.00000000	    -15.21825991	    -10.62026546	      1.05360029
      6.02000000	     -3.43310689	      2.20220009	      4.78130235	      2.71337853	      0.67300483	     -0.25290236	     31.27683137	      2.61235296	      3.27012984	    -55.59108883	      2.80159756	    -25.86522197	      0.00000000	      5.61697717	      6.49585611	      8.50252472	    -17.37861182	     18.88882907	     -9.59332866	      0.00000000	    -16.04525897	     -9.80240841	     -0.37026426
      6.03000000	     -3.05093782	      1.94139222	      5.70959799	      2.72533542	      0.67341701	     -0.25490711	     32.03268344	      2.48350439	      2.95093281	    -51.49441610	      2.66898143	    -26.56738955	      0.00000000	      3.55219532	      6.17425623	      9.42051287	    -16.34338253	     19.29321261	     -9.33876456	      0.00000000	    -16.92554557	     -9.09894085	     -1.87157415
      6.04000000	     -2.67915951	      1.84335871	      6.69981454	      2.73738638	      0.67338644	     -0.25701684	     32.46319845	      2.05878466	      2.59761120	    -46.83899430	      2.19811785	    -27.19708710	      0.00000000	      1.51233714	      5.94845181	     10.19557388	    -15.36072740	     19.74853258	     -8.90224742	      0.00000000	    -17.78859819	     -8.53476314	     -3.40351678
      6.05000000	     -2.31482899	      1.91666121	      7.73993781	      2.74956332	      0.67291837	     -0.25922972	     32.54703218	      1.35014715	      2.18620140	    -41.63792529	      1.47346764	    -27.51172467	      0.00000000	     -0.52008853	      5.83049751	     10.86476233	    -14.43490154	     20.26598531	     -8.29795593	      0.00000000	    -18.62952984	     -8.12243085	     -4.93252382
      6.06000000	     -1.96593943	      2.20308692	      8.81449084	      2.76191245	      0.67199282	     -0.26154736	     32.29248396	      0.34537924	      1.68778752	    -35.94947728	      0.51517921	    -27.37277472	      0.00000000	     -2.55507986	      5.86432628	     11.40746565	    -13.56866063	     20.80948472	     -7.56751160	      0.00000000	    -19.44380317	     -7.91163345	     -6.46258679
      6.07000000	     -1.66328081	      2.67450108	      9.92802628	      2.77453163	      0.67057353	     -0.26400036	     31.77230927	     -0.92479693	      0.93000537	    -29.90135348	     -0.35908842	    -26.41897308	      0.00000000	     -4.62185894	      6.03186333	     12.04025351	    -12.69471572	     21.41863189	     -6.77105085	      0.00000000	    -20.17007366	     -7.87554223	     -7.93149358
      6.08000000	     -1.34318237	      3.34787625	     11.05610447	      2.78747049	      0.66872904	     -0.26654724	     30.97919408	     -2.41142038	     -0.20239681	    -23.65970454	     -1.13577022	    -24.54350548	      0.00000000	     -6.77827782	      6.32794738	     12.66284778	    -11.85626403	     22.00319882	     -5.93474161	      0.00000000	    -20.90338404	     -8.02838012	     -9.36596359
      6.09000000	     -0.99844301	      4.18173700	     12.17126601	      2.80079084	      0.66649211	     -0.26914066	     30.05066596	     -4.03290289	     -2.04680204	    -17.56048579	     -1.23763510	    -21.06527901	      0.00000000	     -9.04048157	      6.69468138	     13.26068647	    -11.04249077	     22.52656085	     -5.09960851	      0.00000000	    -21.64338121	     -8.33102794	    -10.78406601
      6.10000000	     -0.78513685	      5.03436745	     13.30652004	      2.81451918	      0.66378374	     -0.27175028	     29.25984617	     -5.61746369	     -4.82252495	    -11.87404028	     -0.79102404	    -16.08711301	      0.00000000	    -11.22880490	      7.01227733	     14.04666960	    -10.25908391	     23.07213164	     -4.26108226	      0.00000000	    -22.17288463	     -8.67080230	    -12.12204083
      6.11000000	     -0.60638674	      5.76810306	     14.39518379	      2.82863943	      0.66075467	     -0.27420752	     28.61371353	     -6.89731051	     -8.41107589	     -6.86688365	     -0.12847898	    -10.08839989	      0.00000000	    -13.34541837	      7.12297599	     14.82711034	     -9.59786271	     23.64039763	     -3.41699868	      0.00000000	    -22.57201456	     -8.92369087	    -13.30102637
      6.12000000	     -0.54395491	      6.28002250	     15.40467981	      2.84305124	      0.65742971	     -0.27642532	     28.28480130	     -7.74514792	    -12.31946147	     -2.71866334	      0.45751852	     -3.86640515	      0.00000000	    -15.22482662	      6.97161059	     15.56337278	     -9.10871596	     24.24933950	     -2.56262327	      0.00000000	    -22.73065519	     -9.02672326	    -14.28158674
      6.13000000	     -0.65402974	      6.53318210	     16.30608330	      2.85765703	      0.65384515	     -0.27838416	     28.33426738	     -8.17175051	    -15.83413653	      0.54348491	      0.71704836	      1.46490911	      0.00000000	    -16.74471352	      6.58636163	     16.21647416	     -8.84861118	     24.86405737	     -1.71697011	      0.00000000	    -22.57774672	     -8.97896037	    -15.04197930
      6.14000000	     -0.92047676	      6.55253020	     17.07285990	      2.87240099	      0.65010138	     -0.28012877	     28.71610525	     -8.28776285	    -18.57402564	      2.90367324	      0.70239974	      5.20764640	      0.00000000	    -17.91286698	      6.03925714	     16.78042236	     -8.81890532	     25.39106450	     -0.97853905	      0.00000000	    -22.13656551	     -8.80271805	    -15.59962340
      6.15000000	     -1.29417590	      6.37804931	     17.68769278	      2.88727909	      0.64631722	     -0.28171847	     29.39431394	     -8.21060912	    -20.73004255	      4.24970553	      0.71135409	      7.35121181	      0.00000000	    -18.80593993	      5.38996426	     17.27641027	     -8.98256533	     25.74469061	     -0.38044851	      0.00000000	    -21.46893612	     -8.51723900	    -15.96572301
      6.16000000	     -1.78090287	      6.05238488	     18.08914359	      2.90232017	      0.64253961	     -0.28315966	     30.43240221	     -8.02137315	    -22.71540147	      4.43996511	      0.87119383	      8.38163548	      0.00000000	    -19.43169637	      4.72679500	     17.57811439	     -9.33772689	     25.88128111	     -0.01159114	      0.00000000	    -20.56476120	     -8.17598546	    -16.12953651
      6.17000000	     -2.27149049	      5.58689664	     18.28970990	      2.91765493	      0.63887690	     -0.28449156	     31.69653904	     -7.75068865	    -24.78775864	      3.45125841	      1.36053656	      8.43646400	      0.00000000	    -19.97115021	      4.01099277	     17.70938226	     -9.77690977	     25.73461608	      0.23501778	      0.00000000	    -19.52860836	     -7.73744578	    -16.06965388
      6.18000000	     -2.75861527	      5.04529827	     18.34532104	      2.93340921	      0.63531180	     -0.28580280	     33.04163901	     -7.49750651	    -26.81263348	      1.47794844	      2.03945204	      7.50498153	      0.00000000	    -20.48370180	      3.27780944	     17.67606019	    -10.26448146	     25.31160097	      0.42948124	      0.00000000	    -18.37065607	     -7.23897928	    -15.89610665
      6.19000000	     -3.11334513	      4.42176792	     18.32854799	      2.94976088	      0.63189871	     -0.28715318	     34.14763312	     -7.22321251	    -28.55038494	     -1.11379034	      2.72931147	      5.50956848	      0.00000000	    -21.15689943	      2.42927208	     17.50590268	    -10.70255327	     24.57351365	      0.57899838	      0.00000000	    -17.20415570	     -6.60663483	    -15.70664367
      6.20000000	     -3.74957997	      3.86874573	     18.35807853	      2.96660460	      0.62828091	     -0.28860177	     35.33767607	     -7.16443107	    -29.52181136	     -4.04163547	      3.01830432	      2.33328502	      0.00000000	    -21.51757532	      1.71649204	     17.19847895	    -11.26964153	     23.63517232	      1.14534612	      0.00000000	    -15.64245001	     -6.14845451	    -15.56606345
      6.21000000	     -4.21610078	      3.21678437	     18.42314448	      2.98402571	      0.62480966	     -0.29003186	     36.05813228	     -6.90682146	    -29.64733157	     -6.82534060	      2.61126960	     -2.06608466	      0.00000000	    -22.01152042	      0.79325582	     16.66432351	    -11.84797839	     22.43229358	      1.95678682	      0.00000000	    -14.13499591	     -5.52672726	    -15.49653188
      6.22000000	     -4.72068675	      2.51676477	     18.53235994	      3.00173616	      0.62141196	     -0.29138393	     36.66319526	     -6.55645419	    -29.23064175	     -9.48710080	      1.63874317	     -6.82560077	      0.00000000	    -22.32699084	     -0.20669187	     15.90654000	    -12.59264884	     20.94161956	      3.10330627	      0.00000000	    -12.53552188	     -4.87893284	    -15.49422180
      6.23000000	     -5.27273985	      1.74605389	     18.59556163	      3.01944822	      0.61819377	     -0.29249149	     37.31102504	     -6.03464538	    -28.26793853	    -12.03271056	      0.10462422	    -11.79371298	      0.00000000	    -22.34170798	     -1.25692403	     14.86106718	    -13.64045480	     19.16608451	      4.63003264	      0.00000000	    -10.90766159	     -4.20023189	    -15.45104171
      6.24000000	     -5.79950515	      0.93358852	     18.49497947	      3.03680877	      0.61536316	     -0.29320646	     38.11544600	     -5.31417804	    -26.74541542	    -14.67048709	     -1.77343374	    -16.79619331	      0.00000000	    -22.01826100	     -2.29676999	     13.42638497	    -15.13903926	     16.99486594	      6.46736174	      0.00000000	     -9.45025032	     -3.48884213	    -15.26550975
      6.25000000	     -6.36578056	      0.10329627	     18.11129662	      3.05358179	      0.61295287	     -0.29344051	     39.31043251	     -4.40228128	    -24.66807495	    -17.73501244	     -3.09449957	    -21.26388207	      0.00000000	    -21.27178749	     -3.21217836	     11.87833524	    -17.12580175	     14.39320552	      8.27174393	      0.00000000	     -8.16087425	     -2.77060392	    -14.84757497
      6.26000000	     -6.64597599	     -0.68803909	     17.44844393	      3.06962814	      0.61133550	     -0.29325071	     40.51818456	     -3.28338791	    -22.52104548	    -21.25473505	     -3.78566713	    -24.86201189	      0.00000000	    -20.38538552	     -4.04682150	     10.25683664	    -19.65919839	     11.04489931	      9.79095082	      0.00000000	     -7.51738323	     -1.95831322	    -14.16928372
      6.27000000	     -6.66596690	     -1.41782582	     16.55860428	      3.08493453	      0.61047817	     -0.29273710	     41.58265681	     -1.96777994	    -20.48251883	    -24.99438685	     -3.16557979	    -27.10886140	      0.00000000	    -19.31028019	     -4.75784378	      8.82214014	    -22.78051268	      7.04005127	     10.64093263	      0.00000000	     -7.50686667	     -1.08257134	    -13.36361408
